<?xml version="1.0" standalone="no"?>
<!DOCTYPE svg PUBLIC "-//W3C//DTD SVG 20010904//EN"
 "http://www.w3.org/TR/2001/REC-SVG-20010904/DTD/svg10.dtd">
<svg version="1.0" xmlns="http://www.w3.org/2000/svg"
 width="735.000000pt" height="622.000000pt" viewBox="0 0 735.000000 622.000000"
 preserveAspectRatio="xMidYMid meet">

<g transform="translate(0.000000,622.000000) scale(0.100000,-0.100000)"
fill="#000000" stroke="none">
<path d="M7209 6210 c19 -4 58 -11 87 -15 45 -5 54 -4 54 9 0 13 -14 16 -87
15 -67 -1 -80 -3 -54 -9z"/>
<path d="M4340 5830 c0 -5 5 -10 10 -10 6 0 10 5 10 10 0 6 -4 10 -10 10 -5 0
-10 -4 -10 -10z"/>
<path d="M5207 5779 c7 -7 15 -10 18 -7 3 3 -2 9 -12 12 -14 6 -15 5 -6 -5z"/>
<path d="M2691 5664 c0 -11 3 -14 6 -6 3 7 2 16 -1 19 -3 4 -6 -2 -5 -13z"/>
<path d="M3450 5454 c-547 -63 -1068 -320 -1465 -722 l-110 -112 -478 0 -479
0 -46 -51 c-241 -266 -453 -660 -542 -1009 -139 -540 -92 -1122 130 -1620 101
-227 275 -494 424 -652 l35 -38 541 0 541 0 89 -80 c179 -160 355 -278 575
-385 365 -177 663 -245 1083 -245 222 -1 319 9 522 50 447 91 878 328 1220
670 237 236 406 487 535 795 21 50 41 93 44 97 4 4 151 37 326 74 176 36 325
67 330 69 6 1 30 78 54 171 24 93 65 252 92 353 l48 183 -35 132 c-66 254
-102 392 -125 481 -12 50 -23 91 -24 93 -2 3 -296 66 -555 119 -111 23 -116
25 -138 85 -153 409 -492 840 -867 1104 -349 246 -770 404 -1179 443 -144 14
-403 12 -546 -5z m575 -325 c766 -97 1431 -608 1716 -1318 22 -53 41 -87 54
-92 11 -5 139 -32 285 -60 146 -28 270 -56 276 -63 5 -6 45 -141 88 -299 l78
-288 -72 -267 c-95 -355 -86 -330 -118 -336 -15 -3 -144 -29 -287 -57 l-261
-51 -34 -87 c-105 -269 -264 -506 -484 -727 -185 -185 -333 -292 -551 -399
-287 -141 -546 -210 -845 -224 -384 -18 -715 49 -1055 214 -216 105 -372 214
-552 386 l-82 79 -470 0 -470 0 -81 93 c-533 608 -651 1462 -300 2182 33 66
90 167 128 225 63 98 194 263 238 302 17 15 62 17 441 20 l422 3 118 120 c65
66 154 149 198 184 458 368 1041 533 1620 460z"/>
<path d="M1209 4208 c-84 -97 -215 -291 -269 -399 -46 -91 -105 -240 -131
-329 -72 -247 -89 -605 -43 -879 7 -42 54 -224 63 -246 5 -11 19 -47 31 -80
83 -216 209 -424 367 -602 l55 -63 414 0 c384 0 439 3 404 25 -20 13 -162 221
-217 319 -31 54 -71 136 -90 180 -19 45 -38 90 -43 101 -71 158 -129 449 -137
691 -9 270 25 511 107 755 64 194 193 445 292 572 l30 37 -381 0 -380 0 -72
-82z"/>
<path d="M2725 4020 c-3 -5 -1 -10 4 -10 6 0 11 5 11 10 0 6 -2 10 -4 10 -3 0
-8 -4 -11 -10z"/>
<path d="M5810 3632 c0 -2 9 -39 20 -83 50 -197 63 -304 64 -539 1 -239 -9
-334 -58 -530 -13 -52 -23 -96 -22 -97 1 -1 109 20 240 46 148 30 241 53 247
62 5 8 15 41 23 74 8 33 26 101 40 150 14 50 38 137 52 194 26 100 26 105 11
160 -9 31 -26 92 -38 136 -12 44 -30 112 -40 150 -38 140 -52 185 -58 185 -3
0 -113 22 -243 49 -131 26 -238 46 -238 43z"/>
<path d="M3135 3220 c-9 -15 4 -30 26 -30 12 0 19 7 19 20 0 21 -33 29 -45 10z"/>
<path d="M5040 2256 c0 -2 7 -7 16 -10 8 -3 12 -2 9 4 -6 10 -25 14 -25 6z"/>
<path d="M1920 5366 c0 -2 7 -7 16 -10 8 -3 12 -2 9 4 -6 10 -25 14 -25 6z"/>
<path d="M1520 5276 c0 -2 8 -10 18 -17 15 -13 16 -12 3 4 -13 16 -21 21 -21
13z"/>
<path d="M5610 4981 c0 -6 5 -13 12 -17 7 -5 8 -3 3 6 -6 10 -4 12 9 7 10 -4
15 -3 11 3 -8 13 -35 13 -35 1z"/>
<path d="M2650 510 c-9 -6 -10 -10 -3 -10 6 0 15 5 18 10 8 12 4 12 -15 0z"/>
<path d="M4470 391 c0 -6 4 -13 10 -16 6 -3 7 1 4 9 -7 18 -14 21 -14 7z"/>
<path d="M3926 292 c-2 -4 -1 -14 3 -21 6 -9 11 -10 15 -2 4 6 2 11 -4 11 -6
0 -8 5 -5 10 3 6 4 10 1 10 -3 0 -7 -4 -10 -8z"/>
<path d="M4050 140 c-9 -6 -10 -10 -3 -10 6 0 15 5 18 10 8 12 4 12 -15 0z"/>
</g>
</svg>
